<?xml version="1.0" standalone="no"?>
<!DOCTYPE svg PUBLIC "-//W3C//DTD SVG 20010904//EN"
 "http://www.w3.org/TR/2001/REC-SVG-20010904/DTD/svg10.dtd">
<svg version="1.0" xmlns="http://www.w3.org/2000/svg"
 width="256.000000pt" height="256.000000pt" viewBox="0 0 256.000000 256.000000"
 preserveAspectRatio="xMidYMid meet">
<metadata>
Created by potrace 1.14, written by Peter Selinger 2001-2017
</metadata>
<g transform="translate(0.000000,256.000000) scale(0.100000,-0.100000)"
fill="#000000" stroke="none">
<path d="M1249 2188 c-8 -70 -4 -141 8 -154 17 -16 23 -17 43 -4 17 11 23 124
9 153 -11 19 -58 23 -60 5z"/>
<path d="M627 1999 c-27 -16 -20 -41 28 -91 44 -48 71 -58 93 -36 18 18 15 25
-30 74 -51 55 -68 65 -91 53z"/>
<path d="M1850 1950 c-49 -49 -55 -72 -26 -92 16 -11 21 -10 42 10 63 59 86
91 79 111 -10 34 -42 25 -95 -29z"/>
<path d="M1175 1884 c-88 -17 -195 -68 -195 -93 0 -10 7 -24 15 -31 13 -11 26
-9 73 14 145 68 281 68 418 1 239 -117 331 -392 213 -639 -12 -28 -51 -80 -86
-117 -35 -36 -70 -83 -78 -103 l-15 -36 -240 0 -240 0 -15 38 c-9 20 -38 60
-65 87 -110 113 -156 231 -148 377 4 71 2 92 -9 104 -35 35 -63 -15 -66 -118
-6 -152 62 -316 169 -410 58 -51 62 -67 63 -242 2 -142 4 -162 22 -187 11 -16
32 -34 46 -41 17 -8 30 -25 35 -44 8 -31 67 -93 91 -95 7 -1 55 -3 107 -4 132
-2 200 28 215 97 5 19 19 37 41 50 19 11 40 30 47 42 7 13 14 85 17 193 l5
172 57 58 c107 109 163 233 167 371 6 214 -93 395 -274 497 -115 64 -237 84
-370 59z m343 -1121 l-3 -48 -235 0 -235 0 -3 48 -3 47 241 0 241 0 -3 -47z
m2 -146 c0 -16 -5 -37 -10 -48 -10 -18 -23 -19 -225 -19 -181 0 -216 2 -229
16 -18 17 -22 70 -6 76 6 2 114 3 240 3 l230 0 0 -28z m-100 -154 c0 -30 -56
-49 -143 -48 -87 1 -137 19 -137 49 0 11 28 14 140 13 112 0 140 -3 140 -14z"/>
<path d="M840 1671 c-12 -23 -5 -47 16 -55 21 -8 42 3 49 25 14 42 -44 68 -65
30z"/>
<path d="M1375 1395 l-95 -95 -57 60 c-36 38 -64 60 -79 60 -19 0 -34 -17 -34
-39 0 -18 152 -161 170 -161 31 0 241 215 233 237 -7 18 -22 33 -35 33 -4 0
-50 -43 -103 -95z"/>
<path d="M395 1374 c-15 -15 -10 -50 8 -57 10 -4 128 -2 148 2 11 2 17 38 8
52 -11 19 -145 21 -164 3z"/>
<path d="M2018 1382 c-36 -7 -32 -57 5 -65 41 -10 138 -2 146 12 12 19 2 49
-18 55 -17 5 -104 4 -133 -2z"/>
<path d="M660 844 c-55 -51 -65 -88 -29 -99 32 -10 131 89 120 119 -13 35 -38
30 -91 -20z"/>
<path d="M1811 876 c-16 -19 -4 -44 46 -93 45 -45 76 -54 87 -27 10 26 8 31
-44 83 -53 53 -70 60 -89 37z"/>
</g>
</svg>
